PathFileType	4	(X/Y/Z)	D:\TRACE\v60_Jaco2_6-2-23\BothDRS_Motion2_6-v60.trc
DataRate	CameraRate	NumFrames	NumMarkers	Units	OrigDataRate	OrigDataStartFrame	OrigNumFrames
100.00	100.00	      21	9	mm	100.00	1	      7500
Frame#	Time	front left toe			Front right toe			aft left toe			aft right toe			Arm			FL body			FR body			AL Body			AR Body			
		X1	Y1	Z1	X2	Y2	Z2	X3	Y3	Z3	X4	Y4	Z4	X5	Y5	Z5	X6	Y6	Z6	X7	Y7	Z7	X8	Y8	Z8	X9	Y9	Z9	

1	0.000	-173.89435	18.67186	-312.00806	231.56856	18.76930	-369.50629	-96.96512	13.55419	313.79056	294.14218	18.00213	247.90733	31.51349	1215.66626	-363.50778	-70.43086	584.90558	-459.79135	88.94854	584.80200	-480.18265	49.60206	585.64038	478.61490	196.17000	580.02264	459.26526	
2	0.010	-173.86778	18.63952	-312.00552	231.54466	18.77250	-369.53867	-96.94456	13.57981	313.79190	294.14664	17.98487	247.92503	31.35095	1215.70972	-363.62994	-70.41341	584.89667	-459.76941	88.97398	584.81995	-480.18820	49.56870	585.63562	478.60110	196.26570	580.09698	459.21417	
3	0.020	-173.92857	18.68318	-312.03000	231.56850	18.78743	-369.52124	-96.95436	13.56537	313.78125	294.11380	17.96462	247.92021	31.51107	1215.65613	-363.56458	-70.44744	584.88092	-459.74448	88.96179	584.83228	-480.18335	49.57946	585.62000	478.60419	196.55446	580.14661	459.23065	
4	0.030	-173.87653	18.63988	-312.04202	231.52553	18.77145	-369.51813	-96.96359	13.55085	313.83810	294.14838	17.99001	247.92163	31.46215	1215.68445	-363.55927	-70.42609	584.90570	-459.77487	88.91985	584.82727	-480.19614	49.53738	585.64587	478.58435	196.31317	580.05133	459.20657	
5	0.040	-173.91002	18.65969	-312.02884	231.56505	18.76591	-369.49734	-96.94633	13.57469	313.81241	294.17160	18.04361	247.89986	31.55419	1215.67114	-363.59204	-70.41899	584.89026	-459.76797	88.99001	584.79926	-480.18658	49.58204	585.63947	478.58969	204.91368	581.55237	462.54050	
6	0.050	-173.89063	18.66945	-312.03516	231.53078	18.78102	-369.52948	-96.96487	13.56304	313.78534	294.27942	18.09388	247.96825	31.45722	1215.66968	-363.57928	-70.49319	584.88446	-459.75626	88.94883	584.80139	-480.18628	49.56319	585.65326	478.59836	204.90845	581.55756	462.55994	
7	0.060	-173.89166	18.65258	-312.02774	231.59923	18.79869	-369.52039	-96.95776	13.54302	313.80054	294.19684	18.03988	247.93622	31.54266	1215.66467	-363.56918	-70.44644	584.88379	-459.77728	88.98407	584.77222	-480.19498	49.58836	585.61652	478.59653	196.34276	580.13245	459.23856	
8	0.070	-173.87886	18.65566	-312.03497	231.57733	18.78980	-369.54446	-96.95240	13.53750	313.81610	294.11926	17.97206	247.91418	31.42030	1215.70422	-363.61481	-70.53800	584.96021	-459.78638	88.95079	584.81830	-480.19653	49.52474	585.62091	478.58957	196.32379	580.09302	459.25851	
9	0.080	-173.89912	18.63134	-312.01346	231.61696	18.77642	-369.52042	-96.94865	13.55507	313.81473	294.14517	18.00303	247.93016	31.49553	1215.67004	-363.60941	-70.44504	584.90253	-459.80817	88.95483	584.81384	-480.19116	49.57129	585.61432	478.60715	204.90469	581.56067	462.52982	
10	0.090	-173.89317	18.68625	-312.04108	231.54936	18.78057	-369.52264	-96.96131	13.55679	313.80768	294.08215	17.96376	247.90553	31.31735	1215.72632	-363.67831	-70.43235	584.85944	-459.74112	88.96962	584.81525	-480.17065	49.53947	585.64001	478.58731	204.89542	581.56165	462.54739	
11	0.100	-173.92648	18.69750	-312.04892	231.56229	18.77113	-369.50900	-96.96199	13.57429	313.80096	294.14609	18.02822	247.91179	31.35406	1215.72144	-363.64987	-70.46452	584.90607	-459.82663	88.96117	584.82275	-480.14893	49.59260	585.64380	478.58456	196.26254	580.07477	459.26334	
12	0.110	-173.91118	18.66928	-312.03262	231.56485	18.78097	-369.50327	-96.95679	13.55111	313.78540	294.18231	18.00035	247.93686	31.37719	1215.72803	-363.64911	-70.44245	584.87006	-459.82172	88.96419	584.78998	-480.19543	49.59153	585.64911	478.60632	196.19031	580.12799	459.24371	
13	0.120	-173.89000	18.64738	-312.00906	231.60414	18.78665	-369.52719	-96.97807	13.56396	313.83124	294.07401	17.93581	247.90187	31.46289	1215.64648	-363.60141	-70.48351	584.90057	-459.83200	88.94519	584.80530	-480.18005	49.57883	585.62903	478.63318	204.92574	581.54468	462.54153	
14	0.130	-173.84290	18.63415	-312.03409	231.56541	18.78128	-369.51825	-96.96572	13.54440	313.79752	294.16342	17.96478	247.94214	31.41385	1215.68774	-363.62546	-70.37130	584.87323	-459.75729	88.92859	584.81372	-480.19519	49.58577	585.58203	478.62851	204.92838	581.54987	462.51990	
15	0.140	-173.91306	18.65374	-312.02264	231.57246	18.75489	-369.51212	-96.95140	13.56066	313.81329	294.14603	17.97206	247.93027	31.42656	1215.70703	-363.61417	-70.42171	584.87555	-459.78171	88.90527	584.82300	-480.19080	49.57988	585.59570	478.60022	196.23877	580.06268	459.26849	
16	0.150	-173.89658	18.66985	-312.02164	231.56873	18.74409	-369.48288	-96.93851	13.53749	313.82077	294.24902	18.05026	247.94960	31.15683	1215.87195	-363.84482	-70.47953	584.91602	-459.76816	88.93918	584.80835	-480.20657	49.56543	585.64404	478.61026	196.45149	580.08417	459.30081	
17	0.160	-173.92802	18.67866	-312.06924	231.63362	18.77618	-369.51318	-96.91830	13.57389	313.81100	294.14804	18.01752	247.91522	31.47561	1215.67456	-363.57135	-70.49290	584.94019	-459.79190	88.96228	584.81116	-480.19366	49.58765	585.63312	478.57175	204.93088	581.55206	462.52988	
18	0.170	-173.94604	18.69358	-312.03897	231.55219	18.77491	-369.53397	-96.96150	13.58460	313.80261	294.10416	17.96614	247.91466	31.39931	1215.71118	-363.59451	-70.52934	584.91608	-459.83615	88.98542	584.80945	-480.19632	49.57431	585.64746	478.61206	204.92328	581.56525	462.54849	
19	0.180	-173.91353	18.65180	-312.07028	231.59793	18.78781	-369.55029	-96.95028	13.54826	313.81638	294.11240	17.96542	247.93826	31.42106	1215.68433	-363.63855	-70.49580	584.87604	-459.80048	88.98280	584.78760	-480.18423	49.57528	585.59729	478.57166	196.29518	580.01428	459.29211	
20	0.190	-173.86795	18.65184	-312.01160	231.58046	18.77258	-369.53632	-96.93746	13.56952	313.82428	294.16394	17.97741	247.92046	31.40448	1215.70032	-363.61279	-70.42237	584.91339	-459.73862	88.94147	584.81384	-480.19409	49.60084	585.61597	478.61621	196.20198	579.98560	459.28473	
21	0.200	-173.90152	18.67117	-312.02463	231.55154	18.76072	-369.50790	-96.93791	13.58311	313.80844	294.17981	18.01666	247.93250	31.47741	1215.67737	-363.58728	-70.45610	584.95349	-459.75723	88.95266	584.80225	-480.18405	49.60188	585.61090	478.60663	204.92650	581.58472	462.53409	
